<?xml version="1.0" encoding="UTF-8"?>
<svg version="1.1" viewBox="0 0 2048 2048" width="3333" height="3333" xmlns="http://www.w3.org/2000/svg">
<path transform="translate(129,353)" d="m0 0h1790l19 4 18 7 15 10 10 9 9 9 9 13 7 14 5 17 2 15v1146l-2 15-5 17-9 17-9 12-14 14-15 10-10 5-14 5-16 3h-1790l-19-4-18-7-15-10-10-9-9-9-9-13-7-14-5-17-2-15v-1146l2-15 5-17 9-17 9-12 14-14 15-10 10-5 14-5z" fill="#FEFEFE"/>
<path transform="translate(769,551)" d="m0 0h45l30 3 28 5 24 6 30 10 23 10 17 8 21 12 24 16 12 9 5-2 13-10 17-11 17-10 21-11 26-11 30-10 28-7 31-5 23-2h45l30 3 28 5 27 7 24 8 26 11 26 13 23 14 18 13 14 11 14 12 16 15 15 16 9 11 14 18 15 23 12 21 14 29 10 27 8 27 6 28 4 31 1 14v39l-3 32-5 28-7 28-11 32-15 33-10 18-12 19-10 14-10 13-12 14-12 13-14 14-8 7-13 11-19 14-17 11-17 10-19 10-28 12-30 10-29 7-31 5-24 2h-41l-31-3-29-5-30-8-29-10-24-11-20-10-23-14-17-12-8-6-5 2-13 10-22 14-18 10-22 11-28 11-25 8-30 7-26 4-24 2h-41l-31-3-24-4-32-8-32-11-29-13-22-12-19-12-14-10-13-10-14-12-13-12-14-14-7-8-14-17-13-18-12-19-10-18-8-16-10-23-12-36-6-26-4-23-3-32v-39l3-32 5-28 7-28 11-32 9-20 8-16 9-17 18-27 12-16 12-14 12-13 16-16 8-7 17-14 17-12 17-11 21-12 25-12 29-11 27-8 28-6 30-4z" fill="#F69E1B"/>
<path transform="translate(769,551)" d="m0 0h45l30 3 28 5 24 6 30 10 23 10 17 8 21 12 24 16 13 10-5 5-10 9-8 7-23 23-9 11-10 12-13 18-13 21-12 22-9 19-10 26-6 19-7 28-4 23-3 30v47l3 30 5 28 8 30 9 26 11 25 10 20 10 17 10 15 14 19 11 13 9 10 13 14 8 7 11 10 10 8-5 5-18 13-21 13-27 14-20 9-25 9-24 7-22 5-26 4-24 2h-41l-31-3-24-4-32-8-32-11-29-13-22-12-19-12-14-10-13-10-14-12-13-12-14-14-7-8-14-17-13-18-12-19-10-18-8-16-10-23-12-36-6-26-4-23-3-32v-39l3-32 5-28 7-28 11-32 9-20 8-16 9-17 18-27 12-16 12-14 12-13 16-16 8-7 17-14 17-12 17-11 21-12 25-12 29-11 27-8 28-6 30-4z" fill="#E9001A"/>
<path transform="translate(1023,632)" d="m0 0 5 2 15 13 17 16 12 13 12 14 15 20 13 20 11 19 12 24 10 25 8 24 7 28 5 30 2 21v53l-2 21-5 30-8 32-10 29-11 25-13 25-15 24-12 16-8 10-11 13-14 15-9 9-8 7-14 12-4 1-13-11-10-9-13-12-9-10-10-11-13-17-13-18-9-15-10-18-13-27-9-24-8-26-6-26-4-26-2-22v-47l3-30 5-27 7-28 10-29 12-27 12-23 13-21 13-18 11-14 9-10 7-8 24-24 11-9z" fill="#FF5A00"/>
<path transform="translate(1552,1354)" d="m0 0h22v140h-22l-1-10-7 7-9 4-4 1h-20l-10-3-11-6-9-9-6-10-4-13v-21l4-13 5-9 8-9 11-7 13-4h17l12 4 9 7 1 1z" fill="#010000"/>
<path transform="translate(1310,1392)" d="m0 0h17l12 4 9 7 1 1 1-10h22v100h-22l-1-10-5 5-8 5-7 2h-20l-10-3-9-5-10-9-6-9-4-11-1-5v-20l4-13 6-10 7-8 11-7z" fill="#020000"/>
<path transform="translate(697,1392)" d="m0 0h17l12 4 9 7 1 1 1-10h22v100h-22l-1-10-5 5-8 5-7 2h-20l-10-3-9-5-10-9-6-10-4-10-1-5v-20l4-13 6-10 6-7 10-7 11-4z" fill="#020000"/>
<path transform="translate(519,1392)" d="m0 0h17l11 4 8 6 5 6 7-6 8-6 13-4h17l10 3 9 6 7 8 4 10 1 6v69h-24l-1-57-2-11-4-7-6-4-3-1h-13l-10 5-4 6-2 6-1 63h-22l-1-59-3-12-5-6-7-3h-13l-9 4-4 5-3 8-1 63h-22v-100h22l1 10 9-8z" fill="#010000"/>
<path transform="translate(1019,1392)" d="m0 0h20l12 4 11 8 6 8 5 11 2 8v22l-73 1 3 9 5 7 10 5 3 1h17l11-4 10-5 10 15-5 5-12 6-12 3h-22l-13-4-10-6-8-8-5-8-4-12-1-5v-18l3-12 5-10 9-10 9-6 10-4z" fill="#020000"/>
<path transform="translate(815,1392)" d="m0 0h24l16 4 10 5v4l-8 15-18-6-5-1h-17l-8 4-1 2v7l3 3 6 2 22 3 12 4 8 5 6 7 3 7v13l-4 10-8 8-10 5-12 3h-24l-16-4-14-7v-3l9-15 13 6 10 3h21l8-3 4-5v-6l-8-5-9-2-16-2-12-4-8-5-6-7-3-10 1-11 4-9 8-8 10-5z" fill="#030000"/>
<path transform="translate(904,1364)" d="m0 0h22v30h35v20h-35l1 52 2 6 5 2h14l9-3h3l5 15v4l-13 5-4 1h-21l-10-4-7-6-4-8-2-7v-57h-20v-20h20z" fill="#030000"/>
<path transform="translate(1213,1392)" d="m0 0h21l14 4 9 6 1 3-10 16-15-7-4-1h-13l-10 4-8 7-4 8-2 9 1 13 4 9 7 8 9 4h18l12-5 5-3 10 16v3l-10 6-12 4h-25l-13-4-10-6-9-9-7-13-3-15v-10l3-14 6-12 9-10 10-6 11-4z" fill="#030000"/>
<path transform="translate(1517,1412)" d="m0 0h14l9 4 8 7 5 10 1 4v14l-4 11-7 8-8 5-3 1h-15l-9-4-8-7-5-9-1-4v-16l5-12 8-8z" fill="#FEFEFE"/>
<path transform="translate(1315,1412)" d="m0 0h14l10 4 8 8 4 8 1 4v16l-4 10-7 8-8 5-3 1h-15l-12-6-7-8-4-11v-14l4-11 7-8 6-4z" fill="#FEFEFE"/>
<path transform="translate(701,1412)" d="m0 0h14l10 4 8 8 4 8 1 4v16l-4 10-7 8-8 5-3 1h-14l-10-4-8-7-5-10-1-4v-14l4-11 8-9 8-4z" fill="#FEFEFE"/>
<path transform="translate(1442,1392)" d="m0 0h21l1 4-6 18-6-1h-14l-6 3-5 6-2 6-1 66h-23v-100h23l1 9 9-8z" fill="#0F0500"/>
<path transform="translate(1140,1392)" d="m0 0h22l-2 10-3 10-1 1h-20l-8 4-5 10-1 6-1 61h-22v-100h22l1 10 7-7 8-4z" fill="#010000"/>
<path transform="translate(1022,1411)" d="m0 0h14l10 5 6 9 2 6v4h-51l-1-2 3-9 8-9z" fill="#FEFEFE"/>
</svg>
