<?xml version="1.0" encoding="UTF-8"?>
<svg version="1.1" viewBox="0 0 2048 2048" width="3333" height="3333" xmlns="http://www.w3.org/2000/svg">
<path transform="translate(129,353)" d="m0 0h1790l19 4 18 7 15 10 10 9 9 9 9 13 7 14 5 17 2 15v1146l-2 15-5 17-9 17-9 12-14 14-15 10-10 5-14 5-16 3h-1790l-19-4-18-7-15-10-10-9-9-9-9-13-7-14-5-17-2-15v-1146l2-15 5-17 9-17 9-12 14-14 15-10 10-5 14-5z" fill="#FEFEFE"/>
<path transform="translate(352,550)" d="m0 0h1344l14 3 12 5 10 6 10 9 8 9 7 12 5 15 1 5v437l-90 1-17 3-16 6-6 3v-13l-126 1-17 3-13 5-7 4v-13h-204v13l-14-6-15-4-14-2h-146l-1 12-14-7-18-4-9-1h-168l-11 12-17 17-4 5-4-2-13-14-7-8-9-10-224-1v232l220-1 30-30 3-4 4 1 14 15 9 10 7 8 136 1v-54l32-1 19-2 16-4 5-1v62h111v-60h12l1 1v59l354-1 17-3 15-5 10-5v14l127-1 20-3 15-4 7-2v161l-4 15-7 14-7 9-10 10-11 7-11 5-11 3-6 1h-1344l-14-3-12-5-10-6-10-9-8-9-7-12-5-15-1-5v-437l71-1 15-35 1-1h36l7 15 9 21h139l1-25 3 4 9 21 73 1 3-9 8-18h1v27h347v-61h10l3 5v56h179v-14l27 9 17 3 10 1h88l14-31 2-5h37l15 35v2h146v-34l4 5 12 19 6 9 116 1v-232h-115v26l-3-3-13-22-119-1v25l-3-3-11-21h-182l-20 3-15 4-11 5h-2v-13h-110v13l-10-6-11-4-11-2-419-1-3 9-13 28-9 20-2 2-12-25-12-26-3-7-127-1v26l-3-3-11-22-109-1-2 6-18 39-16 36-13 28h-1v-260l4-15 7-14 7-9 10-10 11-7 11-5 11-3z" fill="#2456D5"/>
<path transform="translate(616,1085)" d="m0 0h168l9 10 7 7 7 8 7 7 7 8 8 8 4 5 4-2 24-24 7-8 19-19h145l19 3 13 5 11 7 8 10 5 11 2 12v14l-3 15-6 11-8 9-12 7-12 4-11 2-12 1h-60v55l-1 1h-80l-7-7-7-8-16-17-12-13-8-9-4 2-18 18-7 8-19 19-5 6-2 1h-163l-1-1z" fill="#2456D5"/>
<path transform="translate(1256,797)" d="m0 0h55v36l-53 1-10 3-8 6-4 5-5 12-2 10v22l4 16 5 9 7 6 9 3 7 1h26l16-36 18-40 24-54h63l9 19 18 41 19 42 16 36 7 16 1-154h64l15 24 24 38 15 24 12 19 5 8 1-113h43v166h-59l-7-10-15-24-36-57-20-32-1 123h-85l-13-30-2-7h-87l-3 9-12 28h-64l-17-3-14-5-10-6-8-7-9-13-5-12-3-12-1-7v-34l3-16 5-13 6-10 9-10 9-7 13-6 17-4z" fill="#2456D5"/>
<path transform="translate(359,797)" d="m0 0h62l8 16 18 40 16 36 18 40 10 23 1-155h68l12 24 11 23 12 25 14 29 4 9v2h2l3-9 38-86 7-16 1-1h69v166h-42l-1-94-1-32-14 30-18 39-15 33-11 24h-38l-32-69-18-39-9-20-1 128h-85l-15-35v-2h-87l-3 9-12 28h-46l10-23 19-42 32-72z" fill="#2456D5"/>
<path transform="translate(931,797)" d="m0 0h118l14 2 14 5 9 7 7 8 4 9 1 5v17l-4 13-7 11-8 7-7 4h-2v2l6 2 9 6 7 8 3 7 1 5v48h-42l-1-40-3-9-5-6-7-3-6-1-59-1v60h-42z" fill="#2456D5"/>
<path transform="translate(1109,1085)" d="m0 0h114l16 2 15 5 11 8 6 8 4 10 1 5v13l-3 12-4 8-9 10-8 6-4 2 11 6 6 5 6 10 2 7 1 10v39l-1 1h-41l-1-39-3-10-3-5-10-5-5-1-60-1v61h-41z" fill="#2456D5"/>
<path transform="translate(1300,1085)" d="m0 0h138v34l-96 1-1 30h95v34h-95v33h97v35h-138z" fill="#2456D5"/>
<path transform="translate(764,797)" d="m0 0h139v34l-97 1v29l94 1v34h-95v33h98v34h-139z" fill="#2456D5"/>
<path transform="translate(1509,1085)" d="m0 0h93v35l-81 1-10 2-6 5-1 3v8l3 5 4 3 9 2 35 1 18 2 14 4 10 6 7 8 5 12 1 5v23l-3 11-4 8-9 10-12 7-14 4-18 2h-85l-1-1v-35l88-1 9-3 4-5 1-9-3-6-3-3-7-2-41-2-17-3-14-5-9-7-6-7-4-8-3-16v-8l3-14 5-10 9-10 12-7 14-4z" fill="#2456D5"/>
<path transform="translate(1671,1084)" d="m0 0h92v35l-85 1-8 3-4 4-1 10 3 6 5 3 4 1 15 1 29 1 15 2 13 4 9 6 5 5v64l-9 9-14 7-17 4-14 1h-82l-1-1v-35l87-1 9-3 4-5 1-9-3-7-5-3-5-1-27-1-22-2-16-4-13-7-7-7-6-11-2-8-1-15 2-12 4-9 6-9 8-7 12-6 11-3z" fill="#2456D5"/>
<path transform="translate(658,1119)" d="m0 0h104l7 7 7 8 8 8 7 8 8 8 7 8v3l-16 17-23 23-6 7-2 1h-101l-1-1v-32l1-1h91l-1-33-91-1v-29z" fill="#FEFEFE"/>
<path transform="translate(1123,797)" d="m0 0h42v166h-42z" fill="#2456D5"/>
<path transform="translate(923,1103)" d="m0 0h1v132l-7-6-7-8-9-9-7-8-9-9-7-8-8-8-7-8-2-4 11-12 24-24 7-8z" fill="#FEFEFE"/>
<path transform="translate(965,1119)" d="m0 0h60l10 3 7 6 2 5v14l-5 8-5 4-6 2-8 1h-55z" fill="#FEFEFE"/>
<path transform="translate(1152,1119)" d="m0 0h61l9 2 8 7 2 7-1 9-4 6-5 4-5 2-10 1h-55z" fill="#FEFEFE"/>
<path transform="translate(975,833)" d="m0 0h63l9 3 5 5 2 4v12l-5 8-8 4-6 1h-60z" fill="#FEFEFE"/>
<path transform="translate(1375,826)" d="m0 0 3 3 12 28 14 33v2h-57l2-6 16-37z" fill="#FEFEFE"/>
<path transform="translate(390,826)" d="m0 0 2 2 23 54 3 7v3h-56l3-9 22-51z" fill="#FEFEFE"/>
</svg>
