<?xml version="1.0" encoding="UTF-8"?>
<svg version="1.1" viewBox="0 0 2048 2048" width="3333" height="3333" xmlns="http://www.w3.org/2000/svg">
<path transform="translate(129,353)" d="m0 0h1790l19 4 18 7 15 10 10 9 9 9 9 13 7 14 5 17 2 15v1146l-2 15-5 17-9 17-9 12-14 14-15 10-10 5-14 5-16 3h-1790l-19-4-18-7-15-10-10-9-9-9-9-13-7-14-5-17-2-15v-1146l2-15 5-17 9-17 9-12 14-14 15-10 10-5 14-5z" fill="#88CC2A"/>
<path transform="translate(129,353)" d="m0 0h1790l19 4 18 7 15 10 10 9 9 9 9 13 7 14 5 17 2 15v1146l-2 15-5 17-9 17-9 12-14 14-15 10-10 5-14 5-16 3h-1790l-19-4-18-7-15-10-10-9-9-9-9-13-7-14-5-17-2-15v-1146l2-15 5-17 9-17 9-12 14-14 15-10 10-5 14-5zm227 196-24 4-21 7-15 7-14 8-13 10-13 12-10 11-10 14-9 16-8 19-5 18-2 12v679l4 19 7 21 12 23 10 14 11 12 11 11 15 11 15 9 18 8 21 6 17 3 16 1h1310l24-2 21-5 21-8 15-8 17-12 12-11 11-11 11-15 9-16 7-15 6-19 3-16v-679l-4-20-6-18-9-19-7-11-9-12-11-12-7-7-17-13-15-9-19-8-21-6-19-3z" fill="#FFFFFE"/>
<path transform="translate(1024,655)" d="m0 0 11 1 12 4 11 7 8 8 8 14 3 13v69l6 1 17 8 17 11 11 9 10 9 10 11 10 14 9 16 8 19 6 23 2 16v19l-3 12-7 13-11 11-10 6-9 3-6 1h-14l-12-3-10-5-10-9-6-7-6-13-2-10-1-14-4-14-7-11-9-9-11-6-9-3-6-1h-15l-13 4-12 7-7 7-8 14-3 11v14l6 9 7 7 17 12 20 12 14 7 22 12 26 14 21 13 17 12 13 11 12 11 12 14 11 18 7 16 5 21 1 10v17l-2 18-6 24-8 19-9 16-12 16-12 13-10 9-14 10-16 9-16 7-1 68-3 12-6 12-9 10-10 7-9 4-10 2h-11l-16-4-10-6-10-9-8-13-3-10-1-7v-67l-5-1-14-6-17-10-14-11-11-10-7-8-10-13-8-13-8-16-7-21-4-21-1-11v-12l3-14 7-13 8-9 11-7 10-4 4-1h20l10 3 11 6 8 7 7 10 5 12 2 10 2 18 4 11 7 10 7 7 12 7 11 3 10 1 14-2 12-5 10-7 7-8 7-14 2-8v-13l-6-10-13-11-20-13-25-14-32-17-24-14-16-10-14-10-13-11-10-9-10-11-11-16-8-15-6-19-3-21v-14l2-19 5-21 7-18 10-19 10-14 11-12 11-11 13-10 15-9 17-8 5-1v-67l3-14 7-13 7-8 10-7 12-5z" fill="#FFFFFE"/>
<path transform="translate(1445,655)" d="m0 0h236l14 3 12 6 10 9 7 9 5 12 1 5v654l-4 13-6 10-7 8-11 7-9 4-10 2h-241l-12-3-12-6-10-9-7-10-4-10-2-9v-12l4-15 6-10 9-10 11-7 12-4 7-1h181v-530h-184l-12-3-11-6-10-9-7-10-4-10-2-10v-10l3-13 6-12 10-11 10-6 9-4z" fill="#FFFFFE"/>
<path transform="translate(360,656)" d="m0 0h250l12 4 10 6 8 7 7 11 4 9 2 10v10l-4 16-6 10-9 10-11 7-11 4-6 1h-183v530h180l14 3 14 7 9 8 8 12 4 12 1 6v10l-3 13-6 12-10 11-13 8-16 4h-240l-13-3-13-7-7-6-9-13-4-11-1-5v-652l4-13 6-11 10-10 10-6z" fill="#FFFFFE"/>
</svg>
