<?xml version="1.0" encoding="utf-8"?><!-- Uploaded to: SVG Repo, www.svgrepo.com, Generator: SVG Repo Mixer Tools -->
<svg width="800px" height="800px" viewBox="0 0 24 24" xmlns="http://www.w3.org/2000/svg" id="faceid" class="icon glyph"><path d="M8,22H4a2,2,0,0,1-2-2V16a1,1,0,0,1,2,0v4H8a1,1,0,0,1,0,2Z" style="fill:#231f20"></path><path d="M20,22H16a1,1,0,0,1,0-2h4V16a1,1,0,0,1,2,0v4A2,2,0,0,1,20,22Z" style="fill:#231f20"></path><path d="M8,22H4a2,2,0,0,1-2-2V16a1,1,0,0,1,2,0v4H8a1,1,0,0,1,0,2Z" style="fill:#231f20"></path><path d="M3,9A1,1,0,0,1,2,8V4A2,2,0,0,1,4,2H8A1,1,0,0,1,8,4H4V8A1,1,0,0,1,3,9Z" style="fill:#231f20"></path><path d="M21,9a1,1,0,0,1-1-1V4H16a1,1,0,0,1,0-2h4a2,2,0,0,1,2,2V8A1,1,0,0,1,21,9Z" style="fill:#231f20"></path><path d="M10,14a1,1,0,0,1,0-2c.69,0,1-.29,1-2V7a1,1,0,0,1,2,0v3C13,12.65,12,14,10,14Z" style="fill:#231f20"></path><path d="M8,10A1,1,0,0,1,7,9V7A1,1,0,0,1,9,7V9A1,1,0,0,1,8,10Z" style="fill:#231f20"></path><path d="M16,10a1,1,0,0,1-1-1V7a1,1,0,0,1,2,0V9A1,1,0,0,1,16,10Z" style="fill:#231f20"></path><path d="M12,18.49a6.72,6.72,0,0,1-4.71-1.78,1,1,0,1,1,1.42-1.42,5.11,5.11,0,0,0,6.58,0,1,1,0,0,1,1.42,1.42A6.72,6.72,0,0,1,12,18.49Z" style="fill:#231f20"></path></svg>