<?xml version="1.0" encoding="UTF-8"?>
<svg version="1.1" viewBox="0 0 2048 2048" width="3333" height="3333" xmlns="http://www.w3.org/2000/svg">
<path transform="translate(129,353)" d="m0 0h1790l19 4 18 7 15 10 10 9 9 9 9 13 7 14 5 17 2 15v1146l-2 15-5 17-9 17-9 12-14 14-15 10-10 5-14 5-16 3h-1790l-19-4-18-7-15-10-10-9-9-9-9-13-7-14-5-17-2-15v-1146l2-15 5-17 9-17 9-12 14-14 15-10 10-5 14-5z" fill="#FDFDFD"/>
<path transform="translate(1189,768)" d="m0 0h410l5 2 2 3v98l-3 3-261 1-4 2-2 7v66l3 7 5 3 232 1 5 5v88l-8 11-233 1-3 3-1 3v86l3 5 4 2 259 1 4 4v104l-3 4h-421l-2-2v-500l4-6z" fill="#FE9200"/>
<path transform="translate(711,766)" d="m0 0h291l23 3 23 6 19 8 15 8 13 10 12 11 10 12 8 13 8 16 6 18 5 25 1 9v38l-3 21-6 21-6 15-8 15-10 14-14 15-12 10-16 10-16 8-24 8-22 4-9 1-140 1-1 197-2 2h-149l-3-3v-509l3-5z" fill="#343084"/>
<path transform="translate(437,753)" d="m0 0h40l28 2 28 4 28 7 16 6 16 8 10 6 13 10 13 13 11 15 10 19 9 25 6 27 1 6v8l-135 8h-8l-15-31-10-14-10-9-10-6-11-4-10-2-10-1h-13l-17 2-11 4-10 7-7 9-4 9-1 5v10l4 11 7 9 9 6 32 10 83 21 40 12 28 11 22 11 14 9 13 10 11 10 9 11 10 15 8 18 5 17 3 18 1 13v16l-2 22-5 22-8 21-10 18-10 13-9 10-9 9-17 13-15 9-16 8-25 10-25 7-26 5-26 3-15 1h-36l-25-2-30-5-22-6-20-7-25-12-18-12-10-8-10-9-7-7-13-17-9-16-7-15-6-20-3-15-2-19v-11l1-1 49-3 67-3 25-1 2 6 5 16 10 19 11 14 13 13 14 10 19 9 13 3h16l15-4 16-8 11-8 9-9 8-14 3-10v-18l-4-10-7-9-10-8-14-8-15-7-27-10-46-14-41-12-24-9-24-11-17-10-14-10-14-12-11-12-10-15-7-14-5-17-2-13v-22l3-19 6-20 9-19 8-12 8-10 9-10 7-7 17-13 15-9 23-11 27-9 29-6 24-3z" fill="#343084"/>
<path transform="translate(1825,1057)" d="m0 0h1v221h-146l-3-3v-202l3-5 2-1h45l3 3 1 99 1 3 3 1 8-4 14-19 13-18 14-19 26-36 14-19z" fill="#343084"/>
<path transform="translate(1680,768)" d="m0 0h135l7 2 4 6v192l-4-4-12-17-13-18-12-17-13-18-12-17-13-18-4-5-3 1-1 88-3 7-5 3h-54l-5-5-1-2v-170l4-6z" fill="#FE9200"/>
<path transform="translate(866,865)" d="m0 0h61l19 5 16 8 10 9 7 9 5 12 2 9v23l-4 13-6 10-9 9-10 6-14 5-17 3h-62l-5-4-1-3v-105l3-6z" fill="#FDFDFD"/>
</svg>
