<?xml version="1.0" encoding="UTF-8"?>
<svg version="1.1" viewBox="0 0 2048 2048" width="3333" height="3333" xmlns="http://www.w3.org/2000/svg">
<path transform="translate(129,353)" d="m0 0h1790l19 4 18 7 15 10 10 9 9 9 9 13 7 14 5 17 2 15v1146l-2 15-5 17-9 17-9 12-14 14-15 10-10 5-14 5-16 3h-1790l-19-4-18-7-15-10-10-9-9-9-9-13-7-14-5-17-2-15v-1146l2-15 5-17 9-17 9-12 14-14 15-10 10-5 14-5z" fill="#FEFEFE"/>
<path transform="translate(1680,765)" d="m0 0h128l4 16 5 21 7 33 9 39 7 34 7 30 9 42 10 44 7 33 7 31 9 42 5 22 5 21 4 20 4 16 4 20 7 30 4 20 3 14 1 1v5l-1 1h-132l-3-2-10-47-7-29v-2h-185l-3 3-10 26-16 42-3 8-2 1h-150l-1-4 5-10 7-17 7-15 12-28 7-15 13-30 10-23 7-15 12-28 7-15 5-11 8-19 6-13 5-11 8-19 7-15 12-28 7-15 13-30 10-23 7-15 13-30 10-23 7-15 12-28 9-14 9-10 10-7 12-5 11-3z" fill="#0055A0"/>
<path transform="translate(1271,755)" d="m0 0h63l16 2 26 4 23 5 27 8 7 3-1 11-7 43-4 21-6 36-1 4-6-1-15-7-25-8-12-3-32-5-33-1-21 1-16 3-10 3-12 5-10 7-7 7-5 9-1 5v12l4 10 8 10 19 14 16 9 16 8 19 9 16 8 17 9 22 14 13 10 15 13 10 11 11 16 8 15 5 14 3 13 1 8v29l-3 21-6 20-8 19-12 19-8 10-9 10-7 7-11 9-14 10-13 8-23 11-21 8-22 6-23 5-20 3-17 2h-70l-5-1-22-2-27-4-31-6-30-9-13-5-1-1 1-10 18-108 4-1 22 10 20 8 26 8 12 3 17 3 16 2 18 1h31l14-1 14-3 16-5 13-7 9-7 8-11 3-8 1-14-2-9-6-10-7-8-17-12-21-12-17-8-16-8-19-10-11-6-16-10-19-14-13-12-8-8-12-16-8-14-6-15-3-11-2-12v-25l3-19 6-20 5-12 8-15 11-15 9-10 15-15 19-14 19-11 19-9 18-7 24-7 22-5 22-3z" fill="#0055A0"/>
<path transform="translate(635,765)" d="m0 0h154l-1 5-13 30-10 24-7 15-13 31-7 17-7 15-15 36-7 15-13 31-11 25-5 12-16 38-7 15-13 31-11 25-19 45-12 27-13 31-11 25-15 36-3 5h-154l-3-8-7-24-7-26-13-47-7-24-7-26-7-24-7-26-11-40-7-24-9-33-7-24-7-26-11-40-7-24-7-26-5-18 1-4 17 10 11 7 12 8 18 13 10 8 11 9 10 9 12 11 19 19 7 8 10 12 13 17 9 13 9 14 12 21 8 16 7 16 5 11 14 70 2-1 6-17 8-20 16-41 14-36 16-40 6-16 15-38 14-36 13-33 14-36 11-28z" fill="#0055A0"/>
<path transform="translate(851,764)" d="m0 0h143l1 5-4 21-7 43-4 21-7 43-7 40-7 42-6 34-7 43-4 21-7 43-7 39-7 43-7 40-6 37-2 9-1 9-1 2h-145l-1-3 4-21 7-43 7-40 6-37 5-27 7-42 6-34 7-43 7-39 7-43 7-40 7-42 8-47 5-30z" fill="#0055A0"/>
<path transform="translate(125,763)" d="m0 0h238l17 2 13 4 10 5 10 9 7 9 6 13 5 23 9 43 4 21 4 17 5 25 8 39 4 17 3 17 5 22 3 15-1 6-2-1-5-13-8-16-10-19-10-16-8-12-14-19-11-13-9-10-7-8-20-20-8-7-14-12-17-13-18-13-18-11-9-6-14-7-12-7-23-11-25-11-19-7-25-9-17-5-30-8v-10z" fill="#FAA61A"/>
<path transform="translate(1705,912)" d="m0 0h2l6 27 4 20 7 31 7 33 7 32 8 36 3 14-1 5h-119l1-7 14-36 10-25 6-16 8-20 15-40 4-9 6-17 8-20 3-7z" fill="#FEFEFE"/>
</svg>
